<?xml version="1.0" encoding="utf-8"?>
<!-- Generator: Adobe Illustrator 16.0.0, SVG Export Plug-In . SVG Version: 6.00 Build 0)  -->
<!DOCTYPE svg PUBLIC "-//W3C//DTD SVG 1.1//EN" "http://www.w3.org/Graphics/SVG/1.1/DTD/svg11.dtd">
<svg version="1.1" xmlns="http://www.w3.org/2000/svg" xmlns:xlink="http://www.w3.org/1999/xlink" x="0px" y="0px" width="150px"
	 height="150px" viewBox="0 0 150 150" enable-background="new 0 0 150 150" xml:space="preserve">
<g id="Layer_2" display="none">
	<rect display="inline" fill="#00BBF2" stroke="#000000" stroke-miterlimit="10" width="150" height="150"/>
</g>
<g id="Group_1_1_" opacity="0.0588">
	<g id="Ellipse_1">
		<g>
			<circle fill="#FFFFFF" cx="34.5" cy="65.5" r="2"/>
		</g>
	</g>
	<g id="Ellipse_1_copy">
		<g>
			<circle fill="#FFFFFF" cx="74" cy="34.5" r="2"/>
		</g>
	</g>
	<g id="Ellipse_1_copy_2">
		<g>
			<circle fill="#FFFFFF" cx="70" cy="132.5" r="2"/>
		</g>
	</g>
	<g id="Ellipse_1_copy_3">
		<g>
			<circle fill="#FFFFFF" cx="138" cy="128.5" r="2"/>
		</g>
	</g>
	<g id="Ellipse_1_copy_4">
		<g>
			<circle fill="#FFFFFF" cx="125" cy="65.5" r="2"/>
		</g>
	</g>
	<g id="Ellipse_1_copy_5">
		<g>
			<path fill="#FFFFFF" d="M74.112,34.276L32.294,13.368c0.127-0.263,0.206-0.555,0.206-0.868c0-1.104-0.896-2-2-2s-2,0.896-2,2
				s0.896,2,2,2c0.611,0,1.151-0.28,1.518-0.711l41.87,20.935L74.112,34.276z"/>
		</g>
	</g>
	<g id="Shape_6">
		<g>
			<polygon fill="#FFFFFF" points="0,0.295 29.904,12.731 30.096,12.269 0.592,0 0,0 			"/>
		</g>
	</g>
	<g id="Shape_7">
		<g>
			<polygon fill="#FFFFFF" points="133.634,139.289 133.366,139.711 149.591,150 150,150 150,149.668 			"/>
		</g>
	</g>
	<g id="Shape_8">
		<g>
			
				<rect x="129.882" y="134" transform="matrix(0.356 -0.9345 0.9345 0.356 -38.1923 213.0807)" fill="#FFFFFF" width="11.236" height="0.499"/>
		</g>
	</g>
	<g id="Shape_9">
		<g>
			
				<rect x="99.75" y="20.278" transform="matrix(0.5251 -0.8511 0.8511 0.5251 4.7269 108.9705)" fill="#FFFFFF" width="0.5" height="59.944"/>
		</g>
	</g>
	<g id="Shape_10">
		<g>
			<path fill="#FFFFFF" d="M34,150h0.5V65.5H34V150z M34,7.5h0.5V0H34V7.5z M123.805,65.344l-53.5,67l0.391,0.312l53.5-67
				L123.805,65.344z"/>
		</g>
	</g>
	<g id="Shape_11">
		<g>
			<rect x="30" y="8.75" transform="matrix(0.6 -0.8 0.8 0.6 5.8 29.6)" fill="#FFFFFF" width="5" height="0.5"/>
		</g>
	</g>
	<g id="Shape_1">
		<g>
			<path fill="#FFFFFF" d="M0,65.5h33.5V65H0V65.5z M125,65.5V66h25v-0.5H125z"/>
		</g>
	</g>
	<g id="Shape_2">
		<g>
			<path fill="#FFFFFF" d="M125.246,65.453l-0.492,0.095l12,62.5l0.492-0.094L125.246,65.453z M69.75,131.99l0.5,0.02l4-97
				l-0.5-0.021L69.75,131.99z"/>
		</g>
	</g>
	<g id="Shape_3">
		<g>
			
				<rect x="29.035" y="50.25" transform="matrix(0.7789 -0.6272 0.6272 0.7789 -19.7869 44.8758)" fill="#FFFFFF" width="49.429" height="0.5"/>
		</g>
	</g>
	<g id="Shape_4">
		<g>
			
				<rect x="51.75" y="61.676" transform="matrix(0.8853 -0.4651 0.4651 0.8853 -40.1947 35.5735)" fill="#FFFFFF" width="0.5" height="75.148"/>
		</g>
	</g>
	<g id="Shape_5">
		<g>
			
				<rect x="69.425" y="129.999" transform="matrix(0.9978 -0.0665 0.0665 0.9978 -8.4354 7.1566)" fill="#FFFFFF" width="67.65" height="0.501"/>
		</g>
	</g>
</g>
</svg>
